<?xml version="1.0" encoding="utf-8"?>
<!-- Generator: Adobe Illustrator 16.0.0, SVG Export Plug-In . SVG Version: 6.00 Build 0)  -->
<!DOCTYPE svg PUBLIC "-//W3C//DTD SVG 1.1//EN" "http://www.w3.org/Graphics/SVG/1.1/DTD/svg11.dtd">
<svg version="1.1" id="Layer_1" xmlns="http://www.w3.org/2000/svg" xmlns:xlink="http://www.w3.org/1999/xlink" x="0px" y="0px"
	 width="202px" height="48px" viewBox="0 0 202 48" enable-background="new 0 0 202 48" xml:space="preserve">
<g>
	<path fill="#99999A" d="M96.7,9.5h2.6v16.7h-2.6V9.5z"/>
	<path fill="#99999A" d="M104.2,9.5h2.2l0.3,2.2c1.8-1.6,3.7-2.6,5.8-2.6c2.6,0,4.9,1.6,4.9,5.8v11.2H114.8V15.8
		c0-2.5-0.6-4.4-3-4.4c-1.8,0-3.6,1.1-5.1,2.5v12.2H104.1L104.2,9.5L104.2,9.5z"/>
	<path fill="#99999A" d="M126,23.1c0.9,0.6,2.3,1.3,4.2,1.3c1.899,0,3.6-0.7,3.6-2.6c0-3.7-7.8-2.5-7.8-8c0-2.6,1.9-4.6,5.7-4.6
		c1.6,0,3,0.4,4.1,0.7v2.3c-1.1-0.5-2.399-0.9-4-0.9c-1.6,0-3.2,0.5-3.2,2.3c0,3.7,7.9,2.5,7.9,8c0,3.3-2.7,4.9-6.2,4.9
		c-2.2,0-3.899-0.7-5-1.4L126,23.1z"/>
	<path fill="#99999A" d="M164.6,24.3c-1.3,1.3-2.899,2.2-5,2.2c-3,0-5.3-1.9-5.3-5.1c0-2.2,1.101-3.7,2.8-4.5
		c1.101-0.5,2.5-0.7,4.2-0.8l3.2-0.1v-1.1c0-2.6-1.6-3.7-3.6-3.7s-3.4,0.6-4.601,1.4l-1-1.8c1.9-1.3,4-1.7,5.8-1.7
		c3.5,0,5.9,1.7,5.9,5.7v5.7c0,3.3,0.1,4.8,0.3,5.7H165L164.6,24.3z M161.5,18.1c-1.5,0-2.4,0.3-3.1,0.6c-0.9,0.5-1.5,1.5-1.5,2.6
		c0,1.8,1.199,3.1,3.1,3.1c2.1,0,3.7-1.4,4.4-2.2V18L161.5,18.1z M157.4,4.4c0-2,1.6-3.4,3.699-3.4c2.101,0,3.7,1.4,3.7,3.4
		s-1.6,3.4-3.7,3.4C158.9,7.7,157.4,6.4,157.4,4.4z M162.8,4.4c0-1.2-0.6-1.9-1.7-1.9c-1.1,0-1.699,0.7-1.699,1.9
		c0,1.2,0.6,1.9,1.699,1.9C162.1,6.3,162.8,5.6,162.8,4.4z"/>
	<path fill="#99999A" d="M171.5,9.5h2.2l0.3,2.2c1.8-1.6,3.7-2.6,5.8-2.6c2.601,0,4.9,1.6,4.9,5.8v11.2H182.1V15.8
		c0-2.5-0.6-4.4-3-4.4c-1.8,0-3.6,1.1-5.1,2.5v12.2h-2.6L171.5,9.5L171.5,9.5z"/>
	<path fill="#99999A" d="M188.5,17.6c0-5.1,2.8-8.6,6.9-8.6c4.199,0,6.699,3.3,6.699,8.6v0.6H191.2c0.1,3.4,2,6,5.6,6
		c1.601,0,2.9-0.5,4.101-1.1l0.8,1.8c-1.5,0.899-3.5,1.5-5.3,1.5C191,26.6,188.5,22.5,188.5,17.6z M199.3,16.2
		c0-2.6-1.3-5.1-3.899-5.1c-2.601,0-4.101,2.3-4.2,5.1H199.3z"/>
</g>
<g>
	<g>
		<path fill="#B3282D" d="M27.1,39.8c0.5-0.2,1.3-0.399,1.8-0.399c1.7,0,2.8,1.1,2.8,2.899s-1.2,2.9-2.8,2.9c-0.4,0-0.7-0.101-1-0.2
			v2.8H27L27.1,39.8L27.1,39.8z M28.9,44.5c1.3,0,1.9-0.9,1.9-2.2c0-1.5-0.8-2.1-1.9-2.1c-0.4,0-0.6,0.1-0.9,0.2V44.3
			C28.2,44.4,28.5,44.5,28.9,44.5z"/>
		<path fill="#B3282D" d="M36.1,44.5c-0.5,0.5-1,0.7-1.6,0.7c-1,0-1.7-0.601-1.7-1.7c0-0.7,0.4-1.3,0.9-1.5c0.4-0.2,0.8-0.3,1.4-0.3
			h1.1v-0.4c0-0.8-0.5-1.2-1.2-1.2c-0.7,0-1.1,0.2-1.6,0.5L33,40c0.6-0.5,1.4-0.5,1.9-0.5c1.2,0,2,0.5,2,1.9V43.3
			c0,1.101,0,1.601,0.1,1.9h-0.7L36.1,44.5z M35,42.4c-0.5,0-0.8,0.1-1,0.199c-0.3,0.2-0.5,0.5-0.5,0.801c0,0.6,0.4,1,1,1
			c0.7,0,1.2-0.5,1.5-0.7v-1.4L35,42.4z"/>
		<path fill="#B3282D" d="M38.4,39.6h0.7l0.1,0.7c0.6-0.6,1.1-0.8,1.6-0.8c0.2,0,0.5,0.1,0.6,0.2l-0.3,0.8c-0.2-0.1-0.3-0.1-0.5-0.1
			c-0.4,0-0.8,0.3-1.4,0.8v4.1h-0.9C38.4,45.4,38.4,39.6,38.4,39.6z"/>
		<path fill="#B3282D" d="M42.6,44v-3.7h-0.9v-0.7h0.9v-1.3l0.8-0.3v1.6H45l-0.2,0.7h-1.4v3.5c0,0.5,0.2,0.7,0.5,0.7
			c0.4,0,0.6-0.2,0.9-0.3l0.3,0.6c-0.4,0.3-0.8,0.5-1.4,0.5C43,45.3,42.6,44.8,42.6,44z"/>
		<path fill="#B3282D" d="M48.3,42.3c0-1.6,1-2.899,2.6-2.899c1.6,0,2.6,1.3,2.6,2.899c0,1.601-1,2.9-2.6,2.9
			C49.3,45.3,48.3,44,48.3,42.3z M52.5,42.3c0-1.3-0.6-2.2-1.6-2.2s-1.6,0.9-1.6,2.2s0.6,2.2,1.6,2.2S52.5,43.6,52.5,42.3z"/>
		<path fill="#B3282D" d="M55.1,40.3h-0.7v-0.7h0.7v-1c0-1.399,0.8-1.8,1.6-1.8c0.3,0,0.6,0.101,0.8,0.2l-0.2,0.7
			C57.1,37.6,56.9,37.6,56.7,37.6c-0.5,0-0.8,0.4-0.8,1v1h1.4L57,40.3h-1.2v4.8H55L55.1,40.3L55.1,40.3z"/>
		<path fill="#B3282D" d="M61,44.9V36.8h0.8v2.9c0.4-0.2,0.7-0.3,1.3-0.3c1.4,0,2.5,0.899,2.5,2.699c0,1.9-1.3,3-3,3
			C61.9,45.3,61.3,45.1,61,44.9z M64.7,42.3c0-1.2-0.5-2.1-1.7-2.1c-0.6,0-0.9,0.2-1.1,0.3v3.9c0.3,0.1,0.5,0.199,0.8,0.199
			C63.9,44.5,64.7,43.6,64.7,42.3z"/>
		<path fill="#B3282D" d="M67,44.3c-0.1-0.3-0.2-0.5-0.2-1v-3.7h0.9V43c0,0.4,0,0.6,0.1,0.9c0.2,0.5,0.5,0.6,0.9,0.6
			c0.6,0,1.3-0.4,1.6-0.8V39.6h0.8v3.7c0,1.101,0.1,1.601,0.1,1.9h-0.7L70.3,44.6c-0.5,0.5-1.1,0.7-1.8,0.7
			C67.9,45.3,67.3,45,67,44.3z"/>
		<path fill="#B3282D" d="M72.6,44.1c0.3,0.2,0.7,0.5,1.4,0.5c0.7,0,1.2-0.3,1.2-0.899c0-1.2-2.6-0.8-2.6-2.601
			c0-0.8,0.6-1.6,1.9-1.6c0.5,0,1,0.1,1.4,0.3v0.7c-0.5-0.1-0.8-0.3-1.4-0.3c-0.5,0-1.1,0.2-1.1,0.7c0,1.3,2.6,0.8,2.6,2.6
			c0,1.1-0.9,1.6-2.1,1.6c-0.7,0-1.3-0.3-1.6-0.5L72.6,44.1z"/>
		<path fill="#B3282D" d="M77.2,37.8c0-0.399,0.3-0.5,0.5-0.5c0.4,0,0.5,0.3,0.5,0.5c0,0.4-0.3,0.5-0.5,0.5
			C77.4,38.3,77.2,38.1,77.2,37.8z M77.3,39.6h0.8V45.2h-0.8V39.6z"/>
		<path fill="#B3282D" d="M79.9,39.6h0.7l0.1,0.7c0.6-0.5,1.3-0.8,1.9-0.8c0.9,0,1.6,0.5,1.6,1.9V45.1h-0.8v-3.5
			c0-0.8-0.2-1.5-1-1.5c-0.6,0-1.2,0.4-1.7,0.801V45h-0.9L79.9,39.6L79.9,39.6z"/>
		<path fill="#B3282D" d="M85.5,42.3c0-1.7,0.9-2.8,2.3-2.8c1.4,0,2.2,1.1,2.2,2.8v0.2h-3.7c0,1.1,0.6,2,1.8,2c0.5,0,1-0.2,1.4-0.4
			l0.3,0.601c-0.5,0.3-1.2,0.5-1.7,0.5C86.4,45.3,85.5,43.9,85.5,42.3z M89.1,41.8c0-0.8-0.5-1.7-1.3-1.7c-0.8,0-1.4,0.7-1.4,1.7
			H89.1z"/>
		<path fill="#B3282D" d="M91.1,44.1c0.3,0.2,0.7,0.5,1.4,0.5c0.6,0,1.2-0.3,1.2-0.899c0-1.2-2.6-0.8-2.6-2.601
			c0-0.8,0.6-1.6,1.9-1.6c0.5,0,1,0.1,1.4,0.3v0.7c-0.4-0.2-0.8-0.3-1.4-0.3s-1.1,0.2-1.1,0.7c0,1.3,2.6,0.8,2.6,2.6
			c0,1.1-0.9,1.6-2.1,1.6c-0.7,0-1.3-0.3-1.6-0.5L91.1,44.1z"/>
		<path fill="#B3282D" d="M95.5,44.1c0.3,0.2,0.7,0.5,1.4,0.5c0.7,0,1.2-0.3,1.2-0.899c0-1.2-2.6-0.8-2.6-2.601
			c0-0.8,0.6-1.6,1.9-1.6c0.5,0,1,0.1,1.4,0.3v0.7c-0.4-0.2-0.8-0.3-1.4-0.3c-0.5,0-1.1,0.2-1.1,0.7c0,1.3,2.6,0.8,2.6,2.6
			c0,1.1-0.9,1.6-2.1,1.6c-0.7,0-1.3-0.3-1.6-0.5L95.5,44.1z"/>
		<path fill="#B3282D" d="M102.801,39.6h0.699l0.1,0.7c0.6-0.6,1.1-0.8,1.6-0.8c0.201,0,0.5,0.1,0.602,0.2l-0.301,0.8
			c-0.199-0.1-0.301-0.1-0.5-0.1c-0.4,0-0.801,0.3-1.4,0.8v4.1H102.7C102.801,45.4,102.801,39.6,102.801,39.6z"/>
		<path fill="#B3282D" d="M106.199,42.3c0-1.7,0.9-2.8,2.301-2.8s2.199,1.1,2.199,2.8v0.2H107c0,1.1,0.6,2,1.801,2
			c0.5,0,1-0.2,1.398-0.4L110.5,44.7c-0.5,0.3-1.199,0.5-1.699,0.5C107,45.3,106.199,43.9,106.199,42.3z M109.699,41.8
			c0-0.8-0.5-1.7-1.299-1.7c-0.801,0-1.4,0.7-1.4,1.7H109.699z"/>
		<path fill="#B3282D" d="M111.4,46.4c0-0.5,0.4-1.101,1-1.5c-0.301-0.2-0.4-0.4-0.4-0.7s0.1-0.601,0.5-1.101
			c-0.5-0.399-0.801-0.899-0.801-1.6c0-1.1,0.801-2,2-2c0.5,0,0.801,0.1,1,0.2c0.102,0,0.102,0,0.102,0
			c0.398-0.2,0.699-0.4,1.299-0.4c0.201,0,0.301,0,0.4,0l-0.199,0.601c-0.102,0-0.201,0-0.301,0c-0.199,0-0.4,0.1-0.5,0.199
			c0.5,0.4,0.6,0.9,0.6,1.5c0,1.2-0.9,2-2.199,2c-0.301,0-0.5-0.1-0.701-0.1C113,43.8,112.9,44,112.9,44.1
			c0,1.101,3.699,0.101,3.699,2.2c0,1-1,1.7-2.6,1.7C112.301,47.9,111.4,47.4,111.4,46.4z M115.6,46.3c0-1-1.6-0.8-2.6-1.1
			c-0.301,0.2-0.699,0.5-0.699,1c0,0.6,0.699,1.1,1.699,1.1S115.6,46.8,115.6,46.3z M115.1,41.4c0-0.7-0.5-1.301-1.299-1.301
			c-0.701,0-1.301,0.5-1.301,1.301c0,0.699,0.5,1.3,1.301,1.3C114.6,42.8,115.1,42.3,115.1,41.4z"/>
		<path fill="#B3282D" d="M117.4,37.8c0-0.399,0.299-0.5,0.5-0.5c0.4,0,0.5,0.3,0.5,0.5c0,0.4-0.301,0.5-0.5,0.5
			C117.699,38.3,117.4,38.1,117.4,37.8z M117.6,39.6h0.801V45.2H117.6V39.6z"/>
		<path fill="#B3282D" d="M119.801,42.3c0-1.6,1-2.899,2.6-2.899s2.6,1.3,2.6,2.899c0,1.601-1,2.9-2.6,2.9
			C120.9,45.3,119.801,44,119.801,42.3z M124.1,42.3c0-1.3-0.6-2.2-1.6-2.2s-1.6,0.9-1.6,2.2s0.6,2.2,1.6,2.2S124.1,43.6,124.1,42.3
			z"/>
		<path fill="#B3282D" d="M126.199,39.6h0.701l0.1,0.7c0.6-0.5,1.301-0.8,1.9-0.8c0.9,0,1.6,0.5,1.6,1.9V45.1h-0.801v-3.5
			c0-0.8-0.199-1.5-1-1.5c-0.6,0-1.199,0.4-1.699,0.801V45h-0.9L126.199,39.6L126.199,39.6z"/>
		<path fill="#B3282D" d="M134.6,44.1c0.301,0.2,0.701,0.5,1.4,0.5s1.199-0.3,1.199-0.899c0-1.2-2.6-0.8-2.6-2.601
			c0-0.8,0.6-1.6,1.9-1.6c0.5,0,1,0.1,1.4,0.3v0.7c-0.4-0.2-0.801-0.3-1.4-0.3c-0.5,0-1.1,0.2-1.1,0.7c0,1.3,2.6,0.8,2.6,2.6
			c0,1.1-0.9,1.6-2.1,1.6c-0.701,0-1.301-0.3-1.6-0.5L134.6,44.1z"/>
		<path fill="#B3282D" d="M147.5,44.5c-0.5,0.5-1,0.7-1.6,0.7c-1,0-1.701-0.601-1.701-1.7c0-0.7,0.4-1.3,0.9-1.5
			c0.4-0.2,0.801-0.3,1.4-0.3h1.1v-0.4c0-0.8-0.5-1.2-1.199-1.2c-0.701,0-1.1,0.2-1.6,0.5l-0.4-0.6c0.6-0.5,1.4-0.5,1.9-0.5
			c1.199,0,2,0.5,2,1.9V43.3c0,1.101,0,1.601,0.1,1.9h-0.701L147.5,44.5z M146.5,42.4c-0.5,0-0.801,0.1-1,0.199
			c-0.301,0.2-0.5,0.5-0.5,0.801c0,0.6,0.4,1,1,1c0.699,0,1.199-0.5,1.5-0.7v-1.4L146.5,42.4z M145.1,37.9
			c0-0.601,0.5-1.101,1.201-1.101c0.699,0,1.199,0.5,1.199,1.101c0,0.6-0.5,1.1-1.199,1.1C145.6,39,145.1,38.5,145.1,37.9z
			 M146.801,37.9c0-0.4-0.201-0.601-0.5-0.601c-0.4,0-0.5,0.3-0.5,0.601c0,0.399,0.199,0.6,0.5,0.6
			C146.6,38.5,146.801,38.2,146.801,37.9z"/>
		<path fill="#B3282D" d="M149.801,39.6h0.699l0.1,0.7c0.6-0.5,1.301-0.8,1.9-0.8c0.9,0,1.6,0.5,1.6,1.9V45.1h-0.799v-3.5
			c0-0.8-0.201-1.5-1-1.5c-0.602,0-1.201,0.4-1.701,0.801V45h-0.9L149.801,39.6L149.801,39.6z"/>
		<path fill="#B3282D" d="M155.4,42.3c0-1.7,0.9-2.8,2.299-2.8c1.4,0,2.201,1.1,2.201,2.8v0.2h-3.701c0,1.1,0.602,2,1.801,2
			c0.5,0,1-0.2,1.4-0.4l0.299,0.601c-0.5,0.3-1.199,0.5-1.699,0.5C156.301,45.3,155.4,43.9,155.4,42.3z M159.1,41.8
			c0-0.8-0.5-1.7-1.299-1.7c-0.801,0-1.4,0.7-1.4,1.7H159.1z"/>
	</g>
</g>
<g>
	<path fill="#99999A" d="M140.3,3.3h2.601v12.5h0.1l6.2-6h3.1l-7.1,6.9L153.1,26.1H150l-7-8.399h-0.1V26.1H140.3V3.3L140.3,3.3z"/>
</g>
<g>
	<path fill="#B3282D" d="M139.4,37.3h0.8v4.4l0,0l2.1-2h1L140.9,42l2.6,3.2h-1l-2.4-2.8l0,0v2.8h-0.8v-7.9H139.4z"/>
</g>
<circle fill="#99999A" cx="97.9" cy="4.5" r="1.6"/>
<g>
	<path fill="#AD2525" d="M27.921,13.661h-3.364V9.583h3.364V6.661c0-0.906,0.079-1.761,0.238-2.566
		c0.158-0.804,0.464-1.512,0.917-2.124c0.453-0.612,1.104-1.093,1.954-1.444C31.88,0.176,32.996,0,34.378,0
		c0.521,0,1.031,0.023,1.529,0.068c0.498,0.045,0.985,0.125,1.461,0.238L37.13,4.622c-0.294-0.113-0.566-0.198-0.815-0.255
		c-0.25-0.056-0.533-0.085-0.85-0.085c-0.815,0-1.427,0.176-1.835,0.527c-0.408,0.352-0.612,1.07-0.612,2.158v2.617h3.772v4.078
		h-3.772v12.437h-5.097V13.661z M40.388,4.384c0-0.815,0.289-1.512,0.867-2.09s1.274-0.867,2.09-0.867
		c0.815,0,1.512,0.289,2.09,0.867S46.3,3.568,46.3,4.384s-0.289,1.512-0.866,2.09S44.16,7.34,43.344,7.34
		c-0.816,0-1.512-0.289-2.09-0.866S40.388,5.199,40.388,4.384z M40.795,9.583h5.097v16.515h-5.097V9.583z"/>
	<path fill="#AD2525" d="M51.63,0.408h5.097v25.69H51.63V0.408z"/>
	<path fill="#AD2525" d="M62.397,9.583h4.894v2.243h0.068c0.158-0.317,0.385-0.634,0.68-0.952c0.294-0.317,0.646-0.6,1.053-0.85
		c0.408-0.249,0.872-0.453,1.394-0.611c0.521-0.158,1.087-0.238,1.699-0.238c1.155,0,2.18,0.238,3.076,0.713
		c0.895,0.476,1.568,1.223,2.021,2.243c0.589-1.064,1.303-1.823,2.141-2.277c0.838-0.453,1.869-0.679,3.092-0.679
		c1.109,0,2.044,0.187,2.803,0.561c0.759,0.374,1.359,0.883,1.801,1.529c0.441,0.646,0.758,1.405,0.951,2.276
		c0.192,0.873,0.289,1.807,0.289,2.804v9.752h-5.097v-9.617c0-0.77-0.165-1.433-0.493-1.988c-0.329-0.555-0.913-0.833-1.75-0.833
		c-0.589,0-1.083,0.097-1.479,0.289c-0.396,0.193-0.713,0.459-0.951,0.799c-0.238,0.34-0.408,0.736-0.51,1.189
		s-0.153,0.929-0.153,1.427v8.733H72.83v-8.733c0-0.294-0.012-0.657-0.034-1.087c-0.023-0.43-0.102-0.838-0.238-1.224
		c-0.136-0.385-0.357-0.713-0.663-0.985c-0.306-0.272-0.753-0.408-1.342-0.408c-0.657,0-1.189,0.119-1.597,0.357
		c-0.408,0.238-0.719,0.555-0.935,0.951c-0.215,0.396-0.357,0.844-0.425,1.342c-0.068,0.499-0.102,1.02-0.102,1.563v8.224h-5.097
		V9.583z"/>
</g>
</svg>
